<mxfile host="app.diagrams.net" agent="Mozilla/5.0 (Windows NT 10.0; Win64; x64) AppleWebKit/537.36 (KHTML, like Gecko) Chrome/137.0.0.0 Safari/537.36 Edg/137.0.0.0" version="27.0.6">
  <diagram name="第 1 页" id="3I7jD76_QFvj-1EpIb47">
    <mxGraphModel dx="1441" dy="827" grid="1" gridSize="10" guides="1" tooltips="1" connect="1" arrows="1" fold="1" page="1" pageScale="1" pageWidth="827" pageHeight="1169" math="0" shadow="0">
      <root>
        <mxCell id="0" />
        <mxCell id="1" parent="0" />
        <mxCell id="Wby0zB00FO3PgNo7ZwjD-1" style="edgeStyle=orthogonalEdgeStyle;rounded=0;orthogonalLoop=1;jettySize=auto;html=1;exitX=1;exitY=0.5;exitDx=0;exitDy=0;endArrow=none;startFill=0;entryX=0;entryY=0.5;entryDx=0;entryDy=0;entryPerimeter=0;" edge="1" parent="1" source="Wby0zB00FO3PgNo7ZwjD-2" target="Wby0zB00FO3PgNo7ZwjD-7">
          <mxGeometry relative="1" as="geometry">
            <mxPoint x="597.5" y="190" as="targetPoint" />
          </mxGeometry>
        </mxCell>
        <mxCell id="Wby0zB00FO3PgNo7ZwjD-2" value="" style="verticalLabelPosition=bottom;shadow=0;dashed=0;align=center;html=1;verticalAlign=top;shape=mxgraph.electrical.logic_gates.buffer2;" vertex="1" parent="1">
          <mxGeometry x="430.5" y="170" width="65" height="40" as="geometry" />
        </mxCell>
        <mxCell id="Wby0zB00FO3PgNo7ZwjD-3" value="max_len26050&lt;div&gt;&lt;br&gt;&lt;/div&gt;" style="text;html=1;align=center;verticalAlign=middle;resizable=0;points=[];autosize=1;strokeColor=none;fillColor=none;" vertex="1" parent="1">
          <mxGeometry x="407.5" y="210" width="100" height="40" as="geometry" />
        </mxCell>
        <mxCell id="Wby0zB00FO3PgNo7ZwjD-4" style="edgeStyle=orthogonalEdgeStyle;rounded=0;orthogonalLoop=1;jettySize=auto;html=1;exitX=1;exitY=0.5;exitDx=0;exitDy=0;exitPerimeter=0;entryX=0;entryY=0.5;entryDx=0;entryDy=0;endArrow=none;startFill=0;" edge="1" parent="1" source="Wby0zB00FO3PgNo7ZwjD-5" target="Wby0zB00FO3PgNo7ZwjD-2">
          <mxGeometry relative="1" as="geometry" />
        </mxCell>
        <mxCell id="Wby0zB00FO3PgNo7ZwjD-5" value="" style="html=1;shadow=0;dashed=0;align=center;verticalAlign=middle;shape=mxgraph.arrows2.arrow;dy=0;dx=10;notch=0;" vertex="1" parent="1">
          <mxGeometry x="277.5" y="175" width="30" height="30" as="geometry" />
        </mxCell>
        <mxCell id="Wby0zB00FO3PgNo7ZwjD-6" value="&lt;div&gt;ap_rst&lt;/div&gt;" style="text;html=1;align=center;verticalAlign=middle;resizable=0;points=[];autosize=1;strokeColor=none;fillColor=none;" vertex="1" parent="1">
          <mxGeometry x="262.5" y="205" width="60" height="30" as="geometry" />
        </mxCell>
        <mxCell id="Wby0zB00FO3PgNo7ZwjD-7" value="" style="html=1;shadow=0;dashed=0;align=center;verticalAlign=middle;shape=mxgraph.arrows2.arrow;dy=0;dx=10;notch=0;" vertex="1" parent="1">
          <mxGeometry x="607.5" y="175" width="30" height="30" as="geometry" />
        </mxCell>
        <mxCell id="Wby0zB00FO3PgNo7ZwjD-8" style="edgeStyle=orthogonalEdgeStyle;rounded=0;orthogonalLoop=1;jettySize=auto;html=1;exitX=1;exitY=0.5;exitDx=0;exitDy=0;exitPerimeter=0;endArrow=none;startFill=0;" edge="1" parent="1" source="Wby0zB00FO3PgNo7ZwjD-9" target="Wby0zB00FO3PgNo7ZwjD-11">
          <mxGeometry relative="1" as="geometry">
            <mxPoint x="540" y="300" as="targetPoint" />
          </mxGeometry>
        </mxCell>
        <mxCell id="Wby0zB00FO3PgNo7ZwjD-9" value="" style="html=1;shadow=0;dashed=0;align=center;verticalAlign=middle;shape=mxgraph.arrows2.arrow;dy=0;dx=10;notch=0;" vertex="1" parent="1">
          <mxGeometry x="260" y="285" width="30" height="30" as="geometry" />
        </mxCell>
        <mxCell id="Wby0zB00FO3PgNo7ZwjD-10" value="&lt;div&gt;ap_rst&lt;/div&gt;" style="text;html=1;align=center;verticalAlign=middle;resizable=0;points=[];autosize=1;strokeColor=none;fillColor=none;" vertex="1" parent="1">
          <mxGeometry x="240" y="315" width="60" height="30" as="geometry" />
        </mxCell>
        <mxCell id="Wby0zB00FO3PgNo7ZwjD-11" value="" style="html=1;shadow=0;dashed=0;align=center;verticalAlign=middle;shape=mxgraph.arrows2.arrow;dy=0;dx=10;notch=0;" vertex="1" parent="1">
          <mxGeometry x="545" y="285" width="30" height="30" as="geometry" />
        </mxCell>
        <mxCell id="Wby0zB00FO3PgNo7ZwjD-12" style="edgeStyle=orthogonalEdgeStyle;rounded=0;orthogonalLoop=1;jettySize=auto;html=1;exitX=1;exitY=0.5;exitDx=0;exitDy=0;exitPerimeter=0;endArrow=none;startFill=0;" edge="1" parent="1" source="Wby0zB00FO3PgNo7ZwjD-13">
          <mxGeometry relative="1" as="geometry">
            <mxPoint x="430" y="485" as="targetPoint" />
          </mxGeometry>
        </mxCell>
        <mxCell id="Wby0zB00FO3PgNo7ZwjD-13" value="" style="html=1;shadow=0;dashed=0;align=center;verticalAlign=middle;shape=mxgraph.arrows2.arrow;dy=0;dx=10;notch=0;" vertex="1" parent="1">
          <mxGeometry x="260" y="470" width="30" height="30" as="geometry" />
        </mxCell>
        <mxCell id="Wby0zB00FO3PgNo7ZwjD-14" value="&lt;div&gt;ap_rst&lt;/div&gt;" style="text;html=1;align=center;verticalAlign=middle;resizable=0;points=[];autosize=1;strokeColor=none;fillColor=none;" vertex="1" parent="1">
          <mxGeometry x="240" y="500" width="60" height="30" as="geometry" />
        </mxCell>
        <mxCell id="Wby0zB00FO3PgNo7ZwjD-15" value="" style="html=1;shadow=0;dashed=0;align=center;verticalAlign=middle;shape=mxgraph.arrows2.arrow;dy=0;dx=10;notch=0;" vertex="1" parent="1">
          <mxGeometry x="545" y="470" width="30" height="30" as="geometry" />
        </mxCell>
        <mxCell id="Wby0zB00FO3PgNo7ZwjD-16" style="edgeStyle=orthogonalEdgeStyle;rounded=0;orthogonalLoop=1;jettySize=auto;html=1;endArrow=none;startFill=0;entryX=0;entryY=0.5;entryDx=0;entryDy=0;entryPerimeter=0;" edge="1" parent="1" target="Wby0zB00FO3PgNo7ZwjD-15">
          <mxGeometry relative="1" as="geometry">
            <mxPoint x="540" y="450" as="targetPoint" />
            <mxPoint x="473" y="485" as="sourcePoint" />
          </mxGeometry>
        </mxCell>
        <mxCell id="Wby0zB00FO3PgNo7ZwjD-17" value="&lt;div&gt;in_net: ap_rst&lt;/div&gt;" style="text;html=1;align=center;verticalAlign=middle;resizable=0;points=[];autosize=1;strokeColor=none;fillColor=none;" vertex="1" parent="1">
          <mxGeometry x="310" y="480" width="100" height="30" as="geometry" />
        </mxCell>
        <mxCell id="Wby0zB00FO3PgNo7ZwjD-18" value="&lt;div&gt;out_net: net26050&lt;/div&gt;" style="text;html=1;align=center;verticalAlign=middle;resizable=0;points=[];autosize=1;strokeColor=none;fillColor=none;" vertex="1" parent="1">
          <mxGeometry x="430" y="480" width="120" height="30" as="geometry" />
        </mxCell>
        <mxCell id="Wby0zB00FO3PgNo7ZwjD-19" value="" style="verticalLabelPosition=bottom;shadow=0;dashed=0;align=center;html=1;verticalAlign=top;shape=mxgraph.electrical.logic_gates.buffer2;" vertex="1" parent="1">
          <mxGeometry x="423" y="400" width="65" height="40" as="geometry" />
        </mxCell>
        <mxCell id="Wby0zB00FO3PgNo7ZwjD-20" value="max_len26050&lt;div&gt;&lt;br&gt;&lt;/div&gt;" style="text;html=1;align=center;verticalAlign=middle;resizable=0;points=[];autosize=1;strokeColor=none;fillColor=none;" vertex="1" parent="1">
          <mxGeometry x="400" y="440" width="100" height="40" as="geometry" />
        </mxCell>
        <mxCell id="Wby0zB00FO3PgNo7ZwjD-21" style="edgeStyle=orthogonalEdgeStyle;rounded=0;orthogonalLoop=1;jettySize=auto;html=1;exitX=1;exitY=0.5;exitDx=0;exitDy=0;exitPerimeter=0;endArrow=none;startFill=0;" edge="1" parent="1" source="Wby0zB00FO3PgNo7ZwjD-22">
          <mxGeometry relative="1" as="geometry">
            <mxPoint x="410" y="645" as="targetPoint" />
          </mxGeometry>
        </mxCell>
        <mxCell id="Wby0zB00FO3PgNo7ZwjD-22" value="" style="html=1;shadow=0;dashed=0;align=center;verticalAlign=middle;shape=mxgraph.arrows2.arrow;dy=0;dx=10;notch=0;" vertex="1" parent="1">
          <mxGeometry x="250" y="630" width="30" height="30" as="geometry" />
        </mxCell>
        <mxCell id="Wby0zB00FO3PgNo7ZwjD-23" value="&lt;div&gt;ap_rst&lt;/div&gt;" style="text;html=1;align=center;verticalAlign=middle;resizable=0;points=[];autosize=1;strokeColor=none;fillColor=none;" vertex="1" parent="1">
          <mxGeometry x="230" y="660" width="60" height="30" as="geometry" />
        </mxCell>
        <mxCell id="Wby0zB00FO3PgNo7ZwjD-24" value="" style="html=1;shadow=0;dashed=0;align=center;verticalAlign=middle;shape=mxgraph.arrows2.arrow;dy=0;dx=10;notch=0;" vertex="1" parent="1">
          <mxGeometry x="535" y="630" width="30" height="30" as="geometry" />
        </mxCell>
        <mxCell id="Wby0zB00FO3PgNo7ZwjD-25" style="edgeStyle=orthogonalEdgeStyle;rounded=0;orthogonalLoop=1;jettySize=auto;html=1;endArrow=none;startFill=0;entryX=0;entryY=0.5;entryDx=0;entryDy=0;entryPerimeter=0;exitX=0.891;exitY=0.994;exitDx=0;exitDy=0;exitPerimeter=0;" edge="1" parent="1" source="Wby0zB00FO3PgNo7ZwjD-29" target="Wby0zB00FO3PgNo7ZwjD-24">
          <mxGeometry relative="1" as="geometry">
            <mxPoint x="530" y="610" as="targetPoint" />
            <mxPoint x="463" y="645" as="sourcePoint" />
            <Array as="points">
              <mxPoint x="479" y="645" />
            </Array>
          </mxGeometry>
        </mxCell>
        <mxCell id="Wby0zB00FO3PgNo7ZwjD-26" value="&lt;div&gt;in_net: ap_rst&lt;/div&gt;" style="text;html=1;align=center;verticalAlign=middle;resizable=0;points=[];autosize=1;strokeColor=none;fillColor=none;" vertex="1" parent="1">
          <mxGeometry x="300" y="640" width="100" height="30" as="geometry" />
        </mxCell>
        <mxCell id="Wby0zB00FO3PgNo7ZwjD-27" value="&lt;div&gt;out_net: net26050&lt;/div&gt;" style="text;html=1;align=center;verticalAlign=middle;resizable=0;points=[];autosize=1;strokeColor=none;fillColor=none;" vertex="1" parent="1">
          <mxGeometry x="423" y="650" width="120" height="30" as="geometry" />
        </mxCell>
        <mxCell id="Wby0zB00FO3PgNo7ZwjD-28" value="" style="verticalLabelPosition=bottom;shadow=0;dashed=0;align=center;html=1;verticalAlign=top;shape=mxgraph.electrical.logic_gates.buffer2;" vertex="1" parent="1">
          <mxGeometry x="413" y="560" width="65" height="40" as="geometry" />
        </mxCell>
        <mxCell id="Wby0zB00FO3PgNo7ZwjD-29" value="max_len26050&lt;div&gt;&lt;br&gt;&lt;/div&gt;" style="text;html=1;align=center;verticalAlign=middle;resizable=0;points=[];autosize=1;strokeColor=none;fillColor=none;" vertex="1" parent="1">
          <mxGeometry x="390" y="600" width="100" height="40" as="geometry" />
        </mxCell>
        <mxCell id="Wby0zB00FO3PgNo7ZwjD-30" style="edgeStyle=orthogonalEdgeStyle;rounded=0;orthogonalLoop=1;jettySize=auto;html=1;exitX=0;exitY=0.5;exitDx=0;exitDy=0;endArrow=none;startFill=0;" edge="1" parent="1" source="Wby0zB00FO3PgNo7ZwjD-28">
          <mxGeometry relative="1" as="geometry">
            <mxPoint x="410" y="644" as="targetPoint" />
          </mxGeometry>
        </mxCell>
        <mxCell id="Wby0zB00FO3PgNo7ZwjD-31" style="edgeStyle=orthogonalEdgeStyle;rounded=0;orthogonalLoop=1;jettySize=auto;html=1;exitX=1;exitY=0.5;exitDx=0;exitDy=0;endArrow=none;startFill=0;" edge="1" parent="1" source="Wby0zB00FO3PgNo7ZwjD-28">
          <mxGeometry relative="1" as="geometry">
            <mxPoint x="480" y="640" as="targetPoint" />
          </mxGeometry>
        </mxCell>
      </root>
    </mxGraphModel>
  </diagram>
</mxfile>
